<svg xmlns="http://www.w3.org/2000/svg" viewBox="0 0 64 64" role="img" aria-labelledby="title">
  <title id="title">Lazberry PLY point cloud</title>
  <defs>
    <linearGradient id="background" x1="8" y1="5" x2="56" y2="59" gradientUnits="userSpaceOnUse">
      <stop stop-color="#111b2a"/>
      <stop offset="1" stop-color="#070c13"/>
    </linearGradient>
    <radialGradient id="point" cx="0" cy="0" r="1" gradientTransform="translate(23 18) rotate(49) scale(43)" gradientUnits="userSpaceOnUse">
      <stop stop-color="#8ed8ff"/>
      <stop offset="0.55" stop-color="#499dff"/>
      <stop offset="1" stop-color="#7868ff"/>
    </radialGradient>
  </defs>
  <rect x="2" y="2" width="60" height="60" rx="15" fill="url(#background)" stroke="#2c4058" stroke-width="2"/>
  <g fill="url(#point)">
    <circle cx="32" cy="13" r="3"/>
    <circle cx="22" cy="17" r="2.5" opacity=".9"/>
    <circle cx="42" cy="18" r="2.8"/>
    <circle cx="15" cy="25" r="2.2" opacity=".72"/>
    <circle cx="27" cy="24" r="3.4"/>
    <circle cx="38" cy="25" r="2" opacity=".82"/>
    <circle cx="49" cy="26" r="2.6" opacity=".9"/>
    <circle cx="19" cy="34" r="3"/>
    <circle cx="32" cy="33" r="4.2"/>
    <circle cx="45" cy="34" r="3.1"/>
    <circle cx="12" cy="42" r="1.8" opacity=".58"/>
    <circle cx="24" cy="43" r="2.5" opacity=".85"/>
    <circle cx="39" cy="43" r="3.2"/>
    <circle cx="52" cy="41" r="2" opacity=".65"/>
    <circle cx="31" cy="51" r="2.7" opacity=".9"/>
  </g>
  <g fill="#b9e7ff">
    <circle cx="34" cy="21" r="1.15" opacity=".9"/>
    <circle cx="21" cy="29" r="1" opacity=".75"/>
    <circle cx="42" cy="30" r="1.2" opacity=".82"/>
    <circle cx="31" cy="41" r="1" opacity=".7"/>
  </g>
</svg>
